<svg data-bbox="25.2 31.9 282.9 269.5" viewBox="25.2 31.9 282.9 269.5" xmlns="http://www.w3.org/2000/svg">
    <path d="M218.3 200.4H203v26.1h10.6v6.9H203v40.1h54.3v-24.4H242v-6.9h15.3v-57.5h-10.6v-6.9h10.6V98.5h-6.6v11.4h-6.9V98.5h-27.3v11.4h-6.9V98.5H203v94.9h15.3zM200.4 65.2V81h-6.9V65.2h-6.7v13.5c0 7.1 5.8 12.9 12.9 12.9H261c7.1 0 12.9-5.8 12.9-12.9V65.2H267V81h-6.9V65.2h-9.7V81h-6.9V65.2h-9.7V81h-6.9V65.2h-9.7V81h-6.9V65.2zm-4.3 33c-9.4-1.7-16.4-9.9-16.4-19.5V31.9h18.9V45h8.5V31.9H226V45h8.4V31.9h18.9V45h8.4V31.9h18.9v46.8c0 9.6-7 17.8-16.4 19.5v72.9h17.5v29.5h8.2v72.9h5.9V284h12.3v17.4H25.2V284h12.3v-10.5h5.9v-72.9h8.2v-29.5H69V98.2c-9.4-1.7-16.4-9.9-16.4-19.5V31.9h18.9V45H80V31.9h18.9V45h8.4V31.9h18.9V45h8.5V31.9h18.9v46.8c0 9.6-7 17.8-16.4 19.5v29.4h6.3v-13.2h18.9v13.2h8.4v-13.2h18.9v13.2h6.3zm-122.9-33V81h-6.9V65.2h-6.7v13.5c0 7.1 5.8 12.9 12.9 12.9h61.3c7.1 0 12.9-5.8 12.9-12.9V65.2H140V81h-7V65.2h-9.7V81h-6.9V65.2h-9.7V81h-6.9V65.2h-9.7V81H83V65.2zm197 199.5v-57.2h-5.9v66H283v-66h-5.9v57.2zm-214 0v-57.2h-5.9v66H69v-66h-5.9v57.2zm-11.8 15.7v3.5H289v-3.5zm177.8-114.1h-10.6v-6.9h10.6zm26.7 0h-10.6v-6.9h10.6zm-153.8 0H84.5v-6.9h10.6zm26.7 0h-10.6v-6.9h10.6zm15.4-2.5h17v-14.1c0-15.6 23.7-15.5 23.7 0v14.1h18.2v-29.2h-58.9zm24 0h9.8v-14.1c0-6.4-9.8-6.4-9.8 0zm34.9 7h-58.9v18.5h6.3v-13.2h18.9v13.2h8.4v-13.2h18.9v13.2h6.3zm0 37.8h-58.9v64.9h13.4v-26.7h-6.2v-6.9h6.2v-3c0-8.9 7.2-16.1 16.1-16.1s16.1 7.2 16.1 16.1v3h6.2v6.9h-6.2v26.7h13.4zm0-12.4h-58.9v5.4h58.9zm78.7-18.2h-10.5v22.5h10.5zm-1-132.9v-6.2h-5v6.2zm-58 97.6h2.4v-14.5c0-15.8 24-15.8 24 0v14.5h2.4v6.9h-28.9zm9.4 0h10.1v-14.5c0-6.7-10.1-6.7-10.1 0zm-6.1-97.6v-6.2h-5v6.2zm27.3 0v-6.2h-5v6.2zm-54.7 0v-6.2h-5v6.2zm82.1 6.9h-87.1v6.2h87.1zM32.1 294.5h269.2v-3.6H32.1zm43.9-21h54.3v-38.1h-10.7v-6.9h10.7v-26.1H115v-6.9h15.3v-97h-6.6v11.4h-6.9V98.5H89.5v11.4h-6.9V98.5H76v81.2h10.7v6.9H76v57.5h15.3v6.9H76zM69 178H58.5v22.5H69zM64.6 45.1v-6.2h-5v6.2zm53 104.5H88.7v-6.9h2.4v-14.5c0-15.8 24-15.8 24 0v14.5h2.4v6.9zm-19.5-6.9h10.1v-14.5c0-6.7-10.1-6.7-10.1 0zm21.2-97.6v-6.2h-5v6.2zm-27.4 0v-6.2h-5v6.2zm54.8 0v-6.2h-5v6.2zm0 6.9H59.6v6.2h87.1zm23.5 176.4v45.1h5.7v-36.7c-.1-3.7-2.3-7-5.7-8.4m-7 45.1v-45.1c-3.4 1.4-5.7 4.7-5.7 8.4v36.7zm14.7-84.2h5V183h-5zm-27.4 0h5V183h-5zm27.4-61.6h5v-6.2h-5zm-27.4 0h5v-6.2h-5zM107 266.9H88.2V260H107zm0-31.5H88.2v-6.9H107zm15.7 15.7h-18.8v-6.9h18.8zm-23.4-40H118v6.9H99.3zm0-31.4H118v6.9H99.3zm-15.7 15.7h18.8v6.9H83.6zm142.8 62.5h18.8v6.9h-18.8zm0-31.5h18.8v6.9h-18.8zm-15.7 15.7h18.8v6.9h-18.8zm23.4-26.1h-18.8v-6.9h18.8zm0-31.4h-18.8v-6.9h18.8zm15.7 15.7H231v-6.9h18.8z" fill="#9c0000" data-color="1"></path>
</svg>