<svg preserveAspectRatio="xMidYMid meet" data-bbox="32.5 328.5 531 184" viewBox="32.5 328.5 531 184" xmlns="http://www.w3.org/2000/svg" data-type="color" role="presentation" aria-hidden="true" aria-label="">
    <g>
        <path fill="#9F1A16" clip-rule="evenodd" fill-rule="evenodd" d="M563.5 328.5v184h-531v-184z" data-color="1"></path>
        <path d="M319.2 383.2v-9.5h15.7v4.2c0 .8-.1 1.4-.4 1.9s-.6.9-1.1 1.3c-.4.3-.9.6-1.5.7-.5.2-1.1.3-1.7.3zm-5.2 13.9h5.2V388l11.3-1c1.5-.1 2.9-.5 4.1-1s2.2-1.1 3-1.9 1.5-1.7 1.9-2.7.7-2.1.7-3.3v-9.3H314zm170.1-14.9c-.6 0-1.1-.2-1.7-.3-.5-.2-1-.4-1.5-.7-.4-.3-.8-.7-1.1-1.3-.3-.5-.4-1.2-.4-1.9v-4.2h15.7v9.5zm-3.8 14.9 6-9.9 8.9.8v9.1h5.2v-28.2h-26.2v9.3c0 1.3.3 2.4.8 3.5s1.2 2 2.2 2.8 2.1 1.4 3.5 1.9l-6.5 10.7zm-48.8 0h24.4v4.8h5.2v-9.7h-4.2v-23.4h-5.2v23.4h-14.9v-23.4h-5.2v28.3zm-38.9 0h24.2v-4.8h-18.9v-9.1h14.3v-4.8h-14.3v-4.6h18.9V369h-24.2zm-29.2 0h5.2v-23.4h10.1v-4.8h-25.4v4.8h10.1zm-79.3-4c-1.5 0-2.9-.3-4.2-.8-1.2-.5-2.3-1.2-3.2-2.1s-1.6-2-2.1-3.2-.7-2.5-.8-4c0-1.4.3-2.7.8-4 .5-1.2 1.2-2.3 2.1-3.2s2-1.6 3.2-2.1c1.3-.5 2.6-.8 4.2-.8 1.5 0 2.9.3 4.2.8 1.2.5 2.3 1.2 3.2 2.1s1.6 2 2.1 3.2.7 2.5.8 4c0 1.4-.3 2.7-.8 4-.5 1.2-1.2 2.3-2.1 3.2s-2 1.6-3.2 2.1c-1.3.5-2.7.8-4.2.8m0 4.8c2 0 3.8-.3 5.5-.8 1.6-.5 3.1-1.3 4.3-2.2 1.2-1 2.3-2.1 3.1-3.3.8-1.3 1.5-2.6 1.9-4.1q.6-2.25.6-4.5t-.6-4.5c-.4-1.4-1.1-2.8-1.9-4.1s-1.9-2.4-3.1-3.3-2.7-1.7-4.3-2.2-3.5-.8-5.5-.8-3.8.3-5.5.8c-1.6.5-3.1 1.3-4.3 2.2-1.2 1-2.3 2.1-3.1 3.3-.8 1.3-1.5 2.6-1.9 4.1q-.6 2.25-.6 4.5t.6 4.5c.4 1.5 1.1 2.8 1.9 4.1s1.9 2.4 3.1 3.3 2.7 1.7 4.3 2.2c1.7.5 3.5.8 5.5.8m-43.5-24.4h9.5v7.9c0 1.1-.3 2.1-.7 3.1-.5.9-1.2 1.7-2 2.4-.9.7-1.9 1.2-3 1.7-1.1.4-2.4.6-3.7.7v-15.8zm-4.9 15.7c-1.3-.1-2.5-.3-3.7-.7-1.1-.4-2.1-1-3-1.7s-1.5-1.5-2-2.4-.7-2-.7-3.1v-7.9h9.5v15.8zm4.9 9.5v-4.6c1.7 0 3.3-.3 4.8-.8s2.8-1.1 4-1.9 2.2-1.7 3.1-2.8 1.5-2.2 2-3.4.7-2.5.7-3.8v-12.5h-14.5v-3h-4.8v3h-14.5v12.5c0 1.3.2 2.6.7 3.8s1.1 2.4 2 3.4c.9 1.1 1.9 2 3.1 2.8s2.5 1.4 4 1.9 3.1.7 4.8.8v4.6z" fill="#FFFFFF" data-color="2"></path>
        <path fill="#FFFFFF" d="M389.5 467.6h7.4l30.3-35.1v35.1h9.6v-51.7h-7.4L399.1 451v-35.1h-9.6z" data-color="2"></path>
        <path fill="#FFFFFF" d="M239.7 467.6h9.6v-42.9h18.5v-8.8h-46.6v8.8h18.5z" data-color="2"></path>
        <path d="m286.9 467.6 11-18.1 16.3 1.5v16.6h9.6v-51.7h-48v17c0 2.3.5 4.4 1.4 6.4s2.3 3.7 4 5.2c1.8 1.5 3.9 2.6 6.4 3.5l-11.9 19.6zm7-27.4q-1.5-.15-3-.6c-1-.3-1.9-.8-2.7-1.4s-1.5-1.4-2-2.3-.7-2.1-.8-3.5v-7.8h28.8V442z" fill="#FFFFFF" data-color="2"></path>
        <path fill="#FFFFFF" d="M340.7 467.6h9.6v-42.9h30.3v-8.8h-39.9z" data-color="2"></path>
        <path fill="#FFFFFF" d="M453.9 467.6h9.6v-28.1h27.3v28.1h9.6v-51.7h-9.6v14.7h-27.3v-14.7h-9.6z" data-color="2"></path>
        <path d="M193.1 359.5v77c0 27.1-21.9 49-49 49s-49-21.9-49-49v-77zm-91 7v70c0 23.2 18.8 42 42 42s42-18.8 42-42v-70zm14 31.5h7v52.5h7v-28h10.5V398h7v24.5h10.5v28h7V398h7v59.5h-56zm21 52.5h14v-21h-14zm-21-59.5v-14h14v7h7v-7h14v7h7v-7h14v14z" fill="#FFFFFF" clip-rule="evenodd" fill-rule="evenodd" data-color="2"></path>
    </g>
</svg>